<svg width="349" height="222" viewBox="0 0 349 222" fill="none" xmlns="http://www.w3.org/2000/svg">
<g mask="url(#mask0)">
<rect x="0.685059" y="0.145935" width="348.075" height="221" rx="12.825" fill="#FEC933"/>
</g>
<g clip-path="url(#clip0)">
<path fill-rule="evenodd" clip-rule="evenodd" d="M242.598 37.5304C242.598 40.0445 241.42 41.5254 239.063 41.5254C236.942 41.5254 236.134 40.0789 236.134 37.978V27.267H231.354V38.5291C231.354 42.8342 233.542 45.7272 237.784 45.7272C240.41 45.7272 242.16 44.6596 242.968 43.1097V45.3139H247.379V27.267H242.598V37.5304V37.5304ZM265.525 35.0506C265.525 32.5364 266.704 31.0555 268.959 31.0555C271.08 31.0555 271.787 32.6053 271.787 34.6029V45.3139H276.568V34.0519C276.568 29.8501 274.413 26.8537 270.171 26.8537C267.646 26.8537 265.862 27.6459 264.313 29.4024C263.303 27.8181 261.586 26.8537 259.196 26.8537C256.671 26.8537 254.92 27.9214 254.112 29.4712V27.267L249.702 27.267V45.3139H254.483V34.9473C254.483 32.5364 255.695 31.0555 257.916 31.0555C260.038 31.0555 260.744 32.6053 260.744 34.6029V45.3139H265.525V35.0506V35.0506ZM282.863 29.1957V19.4835L278.082 19.4835V45.3139L282.493 45.3139V43.1097C283.604 44.7629 285.59 45.7272 288.082 45.7272C293.199 45.7272 296.195 41.5254 296.195 36.2906C296.195 31.0558 293.199 26.854 288.082 26.854C285.59 26.8537 283.772 27.9559 282.863 29.1957V29.1957ZM282.729 36.2905C282.729 33.3633 284.412 31.1589 287.071 31.1589C289.731 31.1589 291.414 33.3631 291.414 36.2905C291.414 39.218 289.731 41.4222 287.071 41.4222C284.412 41.4222 282.729 39.2179 282.729 36.2905V36.2905ZM314.651 36.1292C314.651 36.1292 314.605 35.4728 314.471 34.6926C313.565 29.4354 309.394 26.0612 304.255 26.9881C299.116 27.915 296.225 32.5632 297.131 37.8204C298.072 43.2811 302.353 46.4958 307.492 45.5688C311.503 44.8452 314.26 41.7951 314.668 38.0144L309.926 38.8696C309.585 40.2602 308.337 41.1498 306.911 41.407C304.557 41.8316 302.804 40.7839 302.051 38.4017L314.651 36.1292ZM304.888 30.8608C307.076 30.4661 308.736 31.5653 309.412 33.5069L301.521 34.9303C301.568 32.8234 302.733 31.2494 304.888 30.8608ZM325.788 27.1294C325.788 27.1294 325.384 27.095 325.216 27.095C322.219 27.095 320.873 28.5415 320.233 29.6092V27.2674H315.823V45.3139H320.603V36.3249C320.603 33.0186 322.051 31.6066 324.845 31.6066C325.162 31.6141 325.477 31.6486 325.788 31.7099V27.1293V27.1294ZM327.572 45.5896C329.423 45.5896 330.804 44.2464 330.804 42.3177C330.804 40.4235 329.423 39.0114 327.572 39.0114C325.687 39.0114 324.34 40.4235 324.34 42.3177C324.34 44.2463 325.687 45.5894 327.572 45.5894V45.5896Z" fill="#FCFAF7"/>
</g>
<rect x="39.3599" y="78.8772" width="44.2" height="31.7698" rx="4.275" fill="url(#paint0_linear)" stroke="black" stroke-opacity="0.3" stroke-width="1.425"/>
<path d="M54.0933 78.8771C54.0933 78.8771 54.0933 81.8272 54.0933 85.685C54.0933 86.3694 55.1456 87.8301 55.1456 90.2235C55.1456 92.6169 55.3407 95.6451 55.1456 99.3006C55.1321 99.5542 54.0933 103.839 54.0933 103.839C54.0933 103.839 54.0933 110.647 54.0933 110.647" stroke="black" stroke-width="1.425"/>
<path d="M39.3599 90.2239H55.1456" stroke="black" stroke-width="1.425"/>
<path d="M39.3601 99.3003H55.1458" stroke="black" stroke-width="1.425"/>
<path fill-rule="evenodd" clip-rule="evenodd" d="M54.0932 80.1254C54.0932 80.1254 54.2102 79.5581 54.2102 79.2745C54.2102 78.9908 54.3271 78.9908 54.3271 78.9908H53.8594C53.8594 78.9908 53.9763 78.9908 53.9763 79.2745C53.9763 79.5581 54.0932 80.1254 54.0932 80.1254Z" fill="black"/>
<path fill-rule="evenodd" clip-rule="evenodd" d="M40.6462 90.2244C40.6462 90.2244 40.0616 90.3379 39.7693 90.3379C39.4769 90.3379 39.4769 90.4513 39.4769 90.4513V89.9975C39.4769 89.9975 39.4769 90.111 39.7693 90.111C40.0616 90.111 40.6462 90.2244 40.6462 90.2244Z" fill="black"/>
<path fill-rule="evenodd" clip-rule="evenodd" d="M40.6462 99.3007C40.6462 99.3007 40.0616 99.4141 39.7693 99.4141C39.4769 99.4141 39.4769 99.5276 39.4769 99.5276V99.0737C39.4769 99.0737 39.4769 99.1872 39.7693 99.1872C40.0616 99.1872 40.6462 99.3007 40.6462 99.3007Z" fill="black"/>
<path d="M69.5281 78.8772C69.5281 78.8772 69.5281 81.8273 69.5281 85.685C69.5281 86.3695 68.4757 87.8302 68.4757 90.2236C68.4757 92.6169 68.2806 95.6452 68.4757 99.3006C68.4892 99.5542 69.5281 103.839 69.5281 103.839L69.5281 110.647" stroke="black" stroke-width="1.425"/>
<path d="M83.5601 90.224H68.4759" stroke="black" stroke-width="1.425"/>
<path d="M83.5598 99.3002H68.4757" stroke="black" stroke-width="1.425"/>
<path fill-rule="evenodd" clip-rule="evenodd" d="M69.5281 80.1254C69.5281 80.1254 69.4112 79.5581 69.4112 79.2744C69.4112 78.9907 69.2942 78.9907 69.2942 78.9907H69.762C69.762 78.9907 69.645 78.9907 69.645 79.2744C69.645 79.5581 69.5281 80.1254 69.5281 80.1254Z" fill="black"/>
<path fill-rule="evenodd" clip-rule="evenodd" d="M82.2737 90.2243C82.2737 90.2243 82.8583 90.3378 83.1507 90.3378C83.443 90.3378 83.443 90.4512 83.443 90.4512V89.9974C83.443 89.9974 83.443 90.1108 83.1507 90.1108C82.8583 90.1108 82.2737 90.2243 82.2737 90.2243Z" fill="black"/>
<path fill-rule="evenodd" clip-rule="evenodd" d="M82.2737 99.3007C82.2737 99.3007 82.8583 99.4141 83.1507 99.4141C83.443 99.4141 83.443 99.5276 83.443 99.5276V99.0737C83.443 99.0737 83.443 99.1872 83.1507 99.1872C82.8583 99.1872 82.2737 99.3007 82.2737 99.3007Z" fill="black"/>
<path d="M69.5281 110.647C69.5281 110.647 69.0779 108.844 68.7095 108.086C67.7455 106.1 66.6021 104.636 66.0201 103.497C65.5419 102.561 65.2444 101.654 64.7339 100.723C64.5669 100.418 63.9188 100.314 63.7984 100.616C63.6781 100.918 64.3626 101.51 64.7339 102.323C64.9473 102.791 65.3185 104.031 65.3185 104.031L66.0201 104.884L66.7217 106.485L67.7741 107.979C67.7741 107.979 67.7145 108.586 67.7741 108.939C67.8337 109.293 68.3587 110.647 68.3587 110.647" stroke="black" stroke-width="1.425"/>
<path d="M306.792 172.699C307.765 171.674 309.482 172.087 309.884 173.442L319.02 204.285C319.421 205.64 318.205 206.921 316.831 206.591L285.552 199.082C284.178 198.752 283.676 197.058 284.649 196.033L306.792 172.699Z" fill="#302541"/>
<path d="M308.717 178.274C308.032 177.038 308.942 175.524 310.355 175.549L323.137 175.772C324.55 175.796 325.406 177.342 324.678 178.553L318.094 189.511C317.366 190.722 315.6 190.691 314.915 189.455L308.717 178.274Z" fill="#72394A"/>
<path d="M310.219 178.112C311.404 177.343 312.978 178.145 313.052 179.556L313.491 187.933C313.565 189.344 312.084 190.307 310.825 189.665L303.35 185.856C302.091 185.215 301.998 183.451 303.184 182.681L310.219 178.112Z" fill="#FFAE84"/>
<path d="M307.476 198.857C307.476 200.414 308.583 201.591 310.1 201.591C311.726 201.591 312.494 200.444 312.593 199.556H311.137C311.027 200.005 310.608 200.334 310.09 200.334C309.332 200.334 308.893 199.735 308.893 198.857C308.893 197.98 309.332 197.381 310.09 197.381C310.608 197.381 311.027 197.71 311.137 198.159H312.593C312.494 197.271 311.726 196.124 310.1 196.124C308.583 196.124 307.476 197.301 307.476 198.857ZM315.686 196.204C315.686 196.204 315.566 196.194 315.516 196.194C314.629 196.194 314.23 196.613 314.04 196.922V196.244H312.733V201.471H314.15V198.867C314.15 197.91 314.579 197.501 315.407 197.501C315.536 197.501 315.686 197.531 315.686 197.531V196.204ZM320.347 199.266C320.347 199.266 320.367 199.077 320.367 198.848C320.367 197.301 319.32 196.124 317.774 196.124C316.228 196.124 315.15 197.301 315.15 198.848C315.15 200.453 316.238 201.591 317.784 201.591C318.991 201.591 319.948 200.862 320.258 199.805H318.831C318.662 200.184 318.253 200.374 317.824 200.374C317.115 200.374 316.657 199.985 316.557 199.266H320.347ZM317.764 197.261C318.422 197.261 318.851 197.66 318.951 198.249H316.577C316.696 197.651 317.115 197.261 317.764 197.261ZM324.194 196.803C323.925 196.444 323.386 196.124 322.648 196.124C321.132 196.124 320.244 197.341 320.244 198.857C320.244 200.374 321.132 201.591 322.648 201.591C323.386 201.591 323.975 201.311 324.304 200.833V201.471H325.611V193.99H324.194V196.803ZM324.234 198.857C324.234 199.705 323.735 200.344 322.947 200.344C322.159 200.344 321.66 199.705 321.66 198.857C321.66 198.01 322.159 197.371 322.947 197.371C323.735 197.371 324.234 198.01 324.234 198.857ZM326.862 195.566C327.361 195.566 327.72 195.217 327.72 194.718C327.72 194.219 327.361 193.86 326.862 193.86C326.363 193.86 326.004 194.219 326.004 194.718C326.004 195.217 326.363 195.566 326.862 195.566ZM326.154 201.471H327.57V196.244H326.154V201.471ZM330.575 200.214C330.575 200.214 330.435 200.264 330.245 200.264C329.876 200.264 329.717 200.104 329.717 199.755V197.361H330.585V196.244H329.717V194.947H328.3V196.244H327.592V197.361H328.3V199.905C328.3 200.912 328.759 201.501 329.906 201.501C330.335 201.501 330.575 201.441 330.575 201.441V200.214Z" fill="white"/>
<defs>
<linearGradient id="paint0_linear" x1="99.3014" y1="101.618" x2="82.7306" y2="76.0458" gradientUnits="userSpaceOnUse">
<stop stop-color="#E6EBF0"/>
<stop offset="1" stop-color="#C9D2DC"/>
</linearGradient>
<clipPath id="clip0">
<path d="M231.354 19.4835L330.804 19.4835V45.7272L231.354 45.7272V19.4835Z" fill="white"/>
</clipPath>
</defs>
</svg>
