<svg width="357" height="230" viewBox="0 0 357 230" fill="none" xmlns="http://www.w3.org/2000/svg">
<g filter="url(#filter0_di)">
<mask id="mask0" mask-type="alpha" maskUnits="userSpaceOnUse" x="4" y="0" width="349" height="222">
<rect x="4.30945" y="0.450317" width="348.075" height="221" rx="12.825" fill="#C4C4C4"/>
</mask>
<g mask="url(#mask0)">
<rect x="4.30945" y="0.450317" width="348.075" height="221" rx="12.825" fill="#FEC933"/>
</g>
<g clip-path="url(#clip0)">
<path fill-rule="evenodd" clip-rule="evenodd" d="M246.223 37.8347C246.223 40.3489 245.044 41.8298 242.688 41.8298C240.567 41.8298 239.759 40.3833 239.759 38.2824V27.5714H234.978V38.8335C234.978 43.1386 237.166 46.0316 241.408 46.0316C244.034 46.0316 245.785 44.9639 246.593 43.4141V45.6183H251.003V27.5714H246.223V37.8347ZM269.15 35.355C269.15 32.8408 270.328 31.3599 272.584 31.3599C274.705 31.3599 275.412 32.9097 275.412 34.9073V45.6183H280.192V34.3562C280.192 30.1545 278.038 27.1581 273.796 27.1581C271.271 27.1581 269.486 27.9503 267.938 29.7067C266.928 28.1225 265.211 27.1581 262.82 27.1581C260.295 27.1581 258.545 28.2258 257.736 29.7756V27.5714H253.326V45.6183H258.107V35.2517C258.107 32.8408 259.319 31.3599 261.541 31.3599C263.662 31.3599 264.369 32.9097 264.369 34.9073V45.6183H269.15V35.355ZM286.487 29.5001V19.7878H281.707V45.6183H286.117V43.4141C287.228 45.0672 289.215 46.0316 291.706 46.0316C296.823 46.0316 299.819 41.8298 299.819 36.595C299.819 31.3601 296.823 27.1584 291.706 27.1584C289.215 27.1581 287.397 28.2602 286.487 29.5001ZM286.353 36.5949C286.353 33.6677 288.036 31.4632 290.696 31.4632C293.355 31.4632 295.039 33.6674 295.039 36.5949C295.039 39.5224 293.355 41.7266 290.696 41.7266C288.036 41.7266 286.353 39.5223 286.353 36.5949V36.5949ZM318.275 36.4335C318.275 36.4335 318.23 35.7771 318.095 34.997C317.19 29.7398 313.018 26.3655 307.879 27.2925C302.74 28.2194 299.849 32.8676 300.755 38.1248C301.696 43.5855 305.977 46.8002 311.116 45.8732C315.128 45.1495 317.884 42.0995 318.292 38.3188L313.551 39.174C313.209 40.5646 311.961 41.4542 310.535 41.7114C308.181 42.136 306.428 41.0883 305.676 38.7061L318.275 36.4335ZM308.512 31.1652C310.701 30.7705 312.36 31.8697 313.037 33.8113L305.146 35.2347C305.193 33.1277 306.357 31.5538 308.512 31.1652ZM329.412 27.4338C329.412 27.4338 329.008 27.3994 328.84 27.3994C325.844 27.3994 324.497 28.8459 323.857 29.9135V27.5718H319.447V45.6183H324.228V36.6293C324.228 33.323 325.675 31.911 328.469 31.911C328.786 31.9185 329.101 31.953 329.412 32.0143V27.4337V27.4338ZM331.196 45.894C333.048 45.894 334.428 44.5508 334.428 42.6221C334.428 40.7279 333.048 39.3158 331.196 39.3158C329.311 39.3158 327.964 40.7279 327.964 42.6221C327.964 44.5507 329.311 45.8938 331.196 45.8938V45.894Z" fill="#FCFAF7"/>
</g>
<rect x="42.9844" y="79.1815" width="44.2" height="31.7698" rx="4.275" fill="url(#paint0_linear)" stroke="black" stroke-opacity="0.3" stroke-width="1.425"/>
<path d="M57.7178 79.1815C57.7178 79.1815 57.7178 82.1316 57.7178 85.9894C57.7178 86.6738 58.7702 88.1345 58.7702 90.5279C58.7702 92.9213 58.9653 95.9495 58.7702 99.605C58.7566 99.8586 57.7178 104.144 57.7178 104.144C57.7178 104.144 57.7178 110.951 57.7178 110.951" stroke="black" stroke-width="1.425"/>
<path d="M42.9844 90.5283H58.7701" stroke="black" stroke-width="1.425"/>
<path d="M42.9845 99.6046H58.7702" stroke="black" stroke-width="1.425"/>
<path fill-rule="evenodd" clip-rule="evenodd" d="M57.7176 80.4297C57.7176 80.4297 57.8346 79.8624 57.8346 79.5788C57.8346 79.2951 57.9515 79.2951 57.9515 79.2951H57.4838C57.4838 79.2951 57.6007 79.2951 57.6007 79.5788C57.6007 79.8624 57.7176 80.4297 57.7176 80.4297Z" fill="black"/>
<path fill-rule="evenodd" clip-rule="evenodd" d="M44.2708 90.5287C44.2708 90.5287 43.6861 90.6422 43.3938 90.6422C43.1014 90.6422 43.1014 90.7556 43.1014 90.7556V90.3018C43.1014 90.3018 43.1014 90.4153 43.3938 90.4153C43.6861 90.4153 44.2708 90.5287 44.2708 90.5287Z" fill="black"/>
<path fill-rule="evenodd" clip-rule="evenodd" d="M44.2708 99.605C44.2708 99.605 43.6861 99.7184 43.3938 99.7184C43.1014 99.7184 43.1014 99.8319 43.1014 99.8319V99.3781C43.1014 99.3781 43.1014 99.4915 43.3938 99.4915C43.6861 99.4915 44.2708 99.605 44.2708 99.605Z" fill="black"/>
<path d="M73.1526 79.1815C73.1526 79.1815 73.1526 82.1316 73.1526 85.9894C73.1526 86.6738 72.1002 88.1345 72.1002 90.5279C72.1002 92.9213 71.9051 95.9495 72.1002 99.605C72.1137 99.8586 73.1526 104.144 73.1526 104.144L73.1526 110.951" stroke="black" stroke-width="1.425"/>
<path d="M87.1843 90.5283H72.1002" stroke="black" stroke-width="1.425"/>
<path d="M87.1843 99.6046H72.1002" stroke="black" stroke-width="1.425"/>
<path fill-rule="evenodd" clip-rule="evenodd" d="M73.1526 80.4297C73.1526 80.4297 73.0357 79.8624 73.0357 79.5788C73.0357 79.2951 72.9188 79.2951 72.9188 79.2951H73.3865C73.3865 79.2951 73.2695 79.2951 73.2695 79.5788C73.2695 79.8624 73.1526 80.4297 73.1526 80.4297Z" fill="black"/>
<path fill-rule="evenodd" clip-rule="evenodd" d="M85.8982 90.5287C85.8982 90.5287 86.4828 90.6422 86.7752 90.6422C87.0675 90.6422 87.0675 90.7556 87.0675 90.7556V90.3018C87.0675 90.3018 87.0675 90.4153 86.7752 90.4153C86.4828 90.4153 85.8982 90.5287 85.8982 90.5287Z" fill="black"/>
<path fill-rule="evenodd" clip-rule="evenodd" d="M85.8982 99.605C85.8982 99.605 86.4828 99.7184 86.7752 99.7184C87.0675 99.7184 87.0675 99.8319 87.0675 99.8319V99.3781C87.0675 99.3781 87.0675 99.4915 86.7752 99.4915C86.4828 99.4915 85.8982 99.605 85.8982 99.605Z" fill="black"/>
<path d="M73.1526 110.951C73.1526 110.951 72.7024 109.149 72.334 108.39C71.37 106.404 70.2266 104.94 69.6446 103.801C69.1665 102.866 68.8689 101.959 68.3584 101.027C68.1914 100.722 67.5433 100.618 67.4229 100.92C67.3026 101.222 67.9872 101.814 68.3584 102.628C68.5718 103.095 68.943 104.335 68.943 104.335L69.6446 105.189L70.3462 106.789L71.3986 108.283C71.3986 108.283 71.339 108.89 71.3986 109.244C71.4582 109.597 71.9833 110.951 71.9833 110.951" stroke="black" stroke-width="1.425"/>
<path d="M310.416 173.004C311.389 171.979 313.107 172.391 313.508 173.746L322.644 204.589C323.045 205.944 321.829 207.225 320.455 206.896L289.176 199.386C287.802 199.056 287.301 197.362 288.273 196.337L310.416 173.004Z" fill="#302541"/>
<path d="M312.341 178.579C311.656 177.343 312.566 175.828 313.979 175.853L326.761 176.076C328.174 176.101 329.03 177.646 328.302 178.857L321.718 189.815C320.99 191.027 319.224 190.996 318.539 189.76L312.341 178.579Z" fill="#72394A"/>
<path d="M313.843 178.417C315.028 177.647 316.602 178.449 316.676 179.86L317.115 188.238C317.189 189.649 315.708 190.611 314.449 189.969L306.974 186.161C305.715 185.519 305.623 183.755 306.808 182.986L313.843 178.417Z" fill="#FFAE84"/>
<path d="M311.1 199.162C311.1 200.718 312.208 201.895 313.724 201.895C315.35 201.895 316.118 200.748 316.218 199.86H314.761C314.652 200.309 314.233 200.638 313.714 200.638C312.956 200.638 312.517 200.04 312.517 199.162C312.517 198.284 312.956 197.686 313.714 197.686C314.233 197.686 314.652 198.015 314.761 198.464H316.218C316.118 197.576 315.35 196.429 313.724 196.429C312.208 196.429 311.1 197.606 311.1 199.162ZM319.31 196.508C319.31 196.508 319.191 196.499 319.141 196.499C318.253 196.499 317.854 196.917 317.664 197.227V196.548H316.358V201.775H317.774V199.172C317.774 198.214 318.203 197.805 319.031 197.805C319.161 197.805 319.31 197.835 319.31 197.835V196.508ZM323.972 199.571C323.972 199.571 323.992 199.381 323.992 199.152C323.992 197.606 322.944 196.429 321.398 196.429C319.852 196.429 318.775 197.606 318.775 199.152C318.775 200.758 319.862 201.895 321.408 201.895C322.615 201.895 323.573 201.167 323.882 200.109H322.455C322.286 200.489 321.877 200.678 321.448 200.678C320.74 200.678 320.281 200.289 320.181 199.571H323.972ZM321.388 197.566C322.046 197.566 322.475 197.965 322.575 198.553H320.201C320.321 197.955 320.74 197.566 321.388 197.566ZM327.818 197.107C327.549 196.748 327.01 196.429 326.272 196.429C324.756 196.429 323.868 197.646 323.868 199.162C323.868 200.678 324.756 201.895 326.272 201.895C327.01 201.895 327.599 201.616 327.928 201.137V201.775H329.235V194.294H327.818V197.107ZM327.858 199.162C327.858 200.01 327.36 200.648 326.572 200.648C325.784 200.648 325.285 200.01 325.285 199.162C325.285 198.314 325.784 197.676 326.572 197.676C327.36 197.676 327.858 198.314 327.858 199.162ZM330.486 195.87C330.985 195.87 331.344 195.521 331.344 195.022C331.344 194.523 330.985 194.164 330.486 194.164C329.988 194.164 329.629 194.523 329.629 195.022C329.629 195.521 329.988 195.87 330.486 195.87ZM329.778 201.775H331.195V196.548H329.778V201.775ZM334.199 200.518C334.199 200.518 334.059 200.568 333.87 200.568C333.501 200.568 333.341 200.409 333.341 200.06V197.666H334.209V196.548H333.341V195.252H331.925V196.548H331.216V197.666H331.925V200.209C331.925 201.217 332.383 201.805 333.531 201.805C333.959 201.805 334.199 201.745 334.199 201.745V200.518Z" fill="white"/>
</g>
<defs>
<filter id="filter0_di" x="0.309448" y="0.450317" width="356.075" height="229" filterUnits="userSpaceOnUse" color-interpolation-filters="sRGB">
<feFlood flood-opacity="0" result="BackgroundImageFix"/>
<feColorMatrix in="SourceAlpha" type="matrix" values="0 0 0 0 0 0 0 0 0 0 0 0 0 0 0 0 0 0 127 0"/>
<feOffset dy="4"/>
<feGaussianBlur stdDeviation="2"/>
<feColorMatrix type="matrix" values="0 0 0 0 0 0 0 0 0 0 0 0 0 0 0 0 0 0 0.25 0"/>
<feBlend mode="normal" in2="BackgroundImageFix" result="effect1_dropShadow"/>
<feBlend mode="normal" in="SourceGraphic" in2="effect1_dropShadow" result="shape"/>
<feColorMatrix in="SourceAlpha" type="matrix" values="0 0 0 0 0 0 0 0 0 0 0 0 0 0 0 0 0 0 127 0" result="hardAlpha"/>
<feOffset/>
<feGaussianBlur stdDeviation="1"/>
<feComposite in2="hardAlpha" operator="arithmetic" k2="-1" k3="1"/>
<feColorMatrix type="matrix" values="0 0 0 0 0 0 0 0 0 0 0 0 0 0 0 0 0 0 0.25 0"/>
<feBlend mode="normal" in2="shape" result="effect2_innerShadow"/>
</filter>
<linearGradient id="paint0_linear" x1="102.926" y1="101.922" x2="86.3551" y2="76.3501" gradientUnits="userSpaceOnUse">
<stop stop-color="#E6EBF0"/>
<stop offset="1" stop-color="#C9D2DC"/>
</linearGradient>
<clipPath id="clip0">
<path d="M234.978 19.7878L334.428 19.7878V46.0316H234.978V19.7878Z" fill="white"/>
</clipPath>
</defs>
</svg>
